<mxfile host="app.diagrams.net" modified="2024-04-04T01:29:34.775Z" agent="Mozilla/5.0 (Macintosh; Intel Mac OS X 10_15_7) AppleWebKit/537.36 (KHTML, like Gecko) Chrome/123.0.0.0 Safari/537.36" etag="X2Cj1yBQp-hMFZVsHfer" version="24.0.7" type="device">
  <diagram name="ページ1" id="_p8y2ZMvJbF9bzFV4q6h">
    <mxGraphModel dx="731" dy="462" grid="1" gridSize="10" guides="1" tooltips="1" connect="1" arrows="1" fold="1" page="1" pageScale="1" pageWidth="827" pageHeight="1169" math="0" shadow="0">
      <root>
        <mxCell id="0" />
        <mxCell id="1" parent="0" />
        <mxCell id="YSzRyxxZKu7olnSzr28_-48" value="" style="group" vertex="1" connectable="0" parent="1">
          <mxGeometry x="390" y="1520" width="100" height="80.25" as="geometry" />
        </mxCell>
        <mxCell id="YSzRyxxZKu7olnSzr28_-45" value="" style="shape=parallelogram;perimeter=parallelogramPerimeter;whiteSpace=wrap;html=1;fixedSize=1;fillColor=#ffe6cc;strokeColor=none;flipH=1;" vertex="1" parent="YSzRyxxZKu7olnSzr28_-48">
          <mxGeometry x="20" width="40" height="80.25" as="geometry" />
        </mxCell>
        <mxCell id="YSzRyxxZKu7olnSzr28_-2" value="" style="rounded=0;whiteSpace=wrap;html=1;fillColor=#f0a30a;strokeColor=none;fontColor=#000000;" vertex="1" parent="1">
          <mxGeometry x="320" y="1040" width="90" height="20" as="geometry" />
        </mxCell>
        <mxCell id="YSzRyxxZKu7olnSzr28_-1" value="" style="group" vertex="1" connectable="0" parent="1">
          <mxGeometry x="160" y="979.75" width="160" height="80.25" as="geometry" />
        </mxCell>
        <mxCell id="HbvzMS01daK5KtU9_YOO-90" value="" style="rounded=0;whiteSpace=wrap;html=1;fillColor=#fff2cc;strokeColor=none;" parent="YSzRyxxZKu7olnSzr28_-1" vertex="1">
          <mxGeometry x="30" y="60.25" width="130" height="20" as="geometry" />
        </mxCell>
        <mxCell id="lpfqvlLdq34NH5uHOWzO-2" value="" style="shape=parallelogram;perimeter=parallelogramPerimeter;whiteSpace=wrap;html=1;fixedSize=1;fillColor=#fff2cc;strokeColor=none;flipH=1;" parent="YSzRyxxZKu7olnSzr28_-1" vertex="1">
          <mxGeometry width="40" height="80.25" as="geometry" />
        </mxCell>
        <mxCell id="lpfqvlLdq34NH5uHOWzO-17" value="" style="group" parent="1" vertex="1" connectable="0">
          <mxGeometry x="220" y="340" width="260" height="80.25" as="geometry" />
        </mxCell>
        <mxCell id="lpfqvlLdq34NH5uHOWzO-18" value="" style="rounded=0;whiteSpace=wrap;html=1;fillColor=#fff2cc;strokeColor=none;" parent="lpfqvlLdq34NH5uHOWzO-17" vertex="1">
          <mxGeometry x="30" y="60.25" width="110" height="20" as="geometry" />
        </mxCell>
        <mxCell id="lpfqvlLdq34NH5uHOWzO-19" value="" style="shape=parallelogram;perimeter=parallelogramPerimeter;whiteSpace=wrap;html=1;fixedSize=1;fillColor=#fff2cc;strokeColor=none;flipH=1;" parent="lpfqvlLdq34NH5uHOWzO-17" vertex="1">
          <mxGeometry width="40" height="80.25" as="geometry" />
        </mxCell>
        <mxCell id="lpfqvlLdq34NH5uHOWzO-12" value="" style="group" parent="1" vertex="1" connectable="0">
          <mxGeometry x="160" y="670" width="260" height="80.25" as="geometry" />
        </mxCell>
        <mxCell id="lpfqvlLdq34NH5uHOWzO-13" value="" style="rounded=0;whiteSpace=wrap;html=1;fillColor=#fff2cc;strokeColor=none;" parent="lpfqvlLdq34NH5uHOWzO-12" vertex="1">
          <mxGeometry x="30" y="60.25" width="230" height="20" as="geometry" />
        </mxCell>
        <mxCell id="lpfqvlLdq34NH5uHOWzO-14" value="" style="shape=parallelogram;perimeter=parallelogramPerimeter;whiteSpace=wrap;html=1;fixedSize=1;fillColor=#fff2cc;strokeColor=none;flipH=1;" parent="lpfqvlLdq34NH5uHOWzO-12" vertex="1">
          <mxGeometry width="40" height="80.25" as="geometry" />
        </mxCell>
        <mxCell id="lpfqvlLdq34NH5uHOWzO-7" value="" style="group" parent="1" vertex="1" connectable="0">
          <mxGeometry x="160" y="1260" width="260" height="80.25" as="geometry" />
        </mxCell>
        <mxCell id="lpfqvlLdq34NH5uHOWzO-4" value="" style="rounded=0;whiteSpace=wrap;html=1;fillColor=#fff2cc;strokeColor=none;" parent="lpfqvlLdq34NH5uHOWzO-7" vertex="1">
          <mxGeometry x="30" y="60.25" width="230" height="20" as="geometry" />
        </mxCell>
        <mxCell id="lpfqvlLdq34NH5uHOWzO-5" value="" style="shape=parallelogram;perimeter=parallelogramPerimeter;whiteSpace=wrap;html=1;fixedSize=1;fillColor=#fff2cc;strokeColor=none;flipH=1;" parent="lpfqvlLdq34NH5uHOWzO-7" vertex="1">
          <mxGeometry width="40" height="80.25" as="geometry" />
        </mxCell>
        <mxCell id="qTluzcmFmL69i6N4RuAm-2" value="" style="rounded=0;whiteSpace=wrap;html=1;fillColor=#d5e8d4;strokeColor=none;" parent="1" vertex="1">
          <mxGeometry x="110" y="1240" width="390" height="20.25" as="geometry" />
        </mxCell>
        <mxCell id="2vuED8A4F-XmMgElCVzB-1" value="" style="rounded=0;whiteSpace=wrap;html=1;fillColor=#f8cecc;strokeColor=none;" parent="1" vertex="1">
          <mxGeometry x="331" y="1230.13" width="40" height="40.25" as="geometry" />
        </mxCell>
        <mxCell id="p1uvAuJWru4tgl7bkKN8-22" value="" style="rounded=0;whiteSpace=wrap;html=1;fillColor=#d5e8d4;strokeColor=none;" parent="1" vertex="1">
          <mxGeometry x="110" y="20" width="390" height="20" as="geometry" />
        </mxCell>
        <mxCell id="qTluzcmFmL69i6N4RuAm-30" value="" style="rounded=0;whiteSpace=wrap;html=1;fillColor=#f8cecc;strokeColor=none;" parent="1" vertex="1">
          <mxGeometry x="210" y="1230" width="40" height="40.25" as="geometry" />
        </mxCell>
        <mxCell id="p1uvAuJWru4tgl7bkKN8-8" value="" style="ellipse;whiteSpace=wrap;html=1;aspect=fixed;" parent="1" vertex="1">
          <mxGeometry x="160" y="20" width="20" height="20" as="geometry" />
        </mxCell>
        <mxCell id="Q-xTxNDlCBi8yUghtBU0-15" value="" style="ellipse;whiteSpace=wrap;html=1;aspect=fixed;" parent="1" vertex="1">
          <mxGeometry x="220" y="20" width="20" height="20" as="geometry" />
        </mxCell>
        <mxCell id="kbSniEzKT8dJjR5d77Om-10" value="" style="ellipse;whiteSpace=wrap;html=1;aspect=fixed;" parent="1" vertex="1">
          <mxGeometry x="280" y="20" width="20" height="20" as="geometry" />
        </mxCell>
        <mxCell id="kbSniEzKT8dJjR5d77Om-11" value="" style="ellipse;whiteSpace=wrap;html=1;aspect=fixed;fillColor=#f5f5f5;strokeColor=#666666;fontColor=#333333;" parent="1" vertex="1">
          <mxGeometry x="340" y="20" width="20" height="20" as="geometry" />
        </mxCell>
        <mxCell id="p1uvAuJWru4tgl7bkKN8-2" value="&lt;font style=&quot;font-size: 10px;&quot;&gt;&lt;b&gt;トランクブランチ&lt;/b&gt;&lt;/font&gt;" style="text;html=1;strokeColor=none;fillColor=none;align=center;verticalAlign=middle;whiteSpace=wrap;rounded=0;" parent="1" vertex="1">
          <mxGeometry x="9" y="19.38" width="91" height="21.25" as="geometry" />
        </mxCell>
        <mxCell id="p1uvAuJWru4tgl7bkKN8-4" value="&lt;b&gt;&lt;font style=&quot;font-size: 10px;&quot;&gt;v1.0 リリースブランチ&lt;/font&gt;&lt;/b&gt;" style="text;html=1;strokeColor=none;fillColor=none;align=center;verticalAlign=middle;whiteSpace=wrap;rounded=0;" parent="1" vertex="1">
          <mxGeometry x="224" y="100.25" width="116" height="20" as="geometry" />
        </mxCell>
        <mxCell id="HbvzMS01daK5KtU9_YOO-7" value="" style="rounded=0;whiteSpace=wrap;html=1;fillColor=#d5e8d4;strokeColor=none;" parent="1" vertex="1">
          <mxGeometry x="110" y="650" width="390" height="20" as="geometry" />
        </mxCell>
        <mxCell id="HbvzMS01daK5KtU9_YOO-16" value="" style="ellipse;whiteSpace=wrap;html=1;aspect=fixed;fillColor=#f5f5f5;fontColor=#333333;strokeColor=#666666;" parent="1" vertex="1">
          <mxGeometry x="160" y="649.75" width="20" height="20" as="geometry" />
        </mxCell>
        <mxCell id="HbvzMS01daK5KtU9_YOO-36" style="rounded=0;orthogonalLoop=1;jettySize=auto;html=1;entryX=0.5;entryY=0;entryDx=0;entryDy=0;dashed=1;" parent="1" source="HbvzMS01daK5KtU9_YOO-23" target="HbvzMS01daK5KtU9_YOO-33" edge="1">
          <mxGeometry relative="1" as="geometry" />
        </mxCell>
        <mxCell id="HbvzMS01daK5KtU9_YOO-23" value="" style="ellipse;whiteSpace=wrap;html=1;aspect=fixed;fillColor=#dae8fc;strokeColor=#6c8ebf;" parent="1" vertex="1">
          <mxGeometry x="280" y="650" width="20" height="20" as="geometry" />
        </mxCell>
        <mxCell id="HbvzMS01daK5KtU9_YOO-25" value="" style="ellipse;whiteSpace=wrap;html=1;aspect=fixed;" parent="1" vertex="1">
          <mxGeometry x="340" y="650" width="20" height="20" as="geometry" />
        </mxCell>
        <mxCell id="HbvzMS01daK5KtU9_YOO-37" style="rounded=0;orthogonalLoop=1;jettySize=auto;html=1;dashed=1;" parent="1" source="HbvzMS01daK5KtU9_YOO-26" target="HbvzMS01daK5KtU9_YOO-34" edge="1">
          <mxGeometry relative="1" as="geometry" />
        </mxCell>
        <mxCell id="HbvzMS01daK5KtU9_YOO-26" value="" style="ellipse;whiteSpace=wrap;html=1;aspect=fixed;fillColor=#dae8fc;strokeColor=#6c8ebf;" parent="1" vertex="1">
          <mxGeometry x="400" y="650" width="20" height="20" as="geometry" />
        </mxCell>
        <mxCell id="HbvzMS01daK5KtU9_YOO-29" value="" style="ellipse;whiteSpace=wrap;html=1;aspect=fixed;" parent="1" vertex="1">
          <mxGeometry x="460" y="649.75" width="20" height="20" as="geometry" />
        </mxCell>
        <mxCell id="HbvzMS01daK5KtU9_YOO-33" value="" style="ellipse;whiteSpace=wrap;html=1;aspect=fixed;fillColor=#dae8fc;strokeColor=#6c8ebf;" parent="1" vertex="1">
          <mxGeometry x="250" y="730" width="20" height="20" as="geometry" />
        </mxCell>
        <mxCell id="HbvzMS01daK5KtU9_YOO-34" value="" style="ellipse;whiteSpace=wrap;html=1;aspect=fixed;fillColor=#dae8fc;strokeColor=#6c8ebf;" parent="1" vertex="1">
          <mxGeometry x="370" y="730" width="20" height="20" as="geometry" />
        </mxCell>
        <mxCell id="HbvzMS01daK5KtU9_YOO-39" value="" style="ellipse;whiteSpace=wrap;html=1;aspect=fixed;fillColor=#dae8fc;strokeColor=#6c8ebf;" parent="1" vertex="1">
          <mxGeometry x="280" y="595" width="20" height="20" as="geometry" />
        </mxCell>
        <mxCell id="HbvzMS01daK5KtU9_YOO-40" value="リリースに含めたい修正" style="text;html=1;align=center;verticalAlign=middle;whiteSpace=wrap;rounded=0;" parent="1" vertex="1">
          <mxGeometry x="310" y="590" width="150" height="30" as="geometry" />
        </mxCell>
        <mxCell id="HbvzMS01daK5KtU9_YOO-46" value="チェリーピック" style="text;html=1;align=center;verticalAlign=middle;whiteSpace=wrap;rounded=0;" parent="1" vertex="1">
          <mxGeometry x="270" y="685" width="100" height="30" as="geometry" />
        </mxCell>
        <mxCell id="HbvzMS01daK5KtU9_YOO-47" value="" style="ellipse;whiteSpace=wrap;html=1;aspect=fixed;" parent="1" vertex="1">
          <mxGeometry x="220" y="650" width="20" height="20" as="geometry" />
        </mxCell>
        <mxCell id="HbvzMS01daK5KtU9_YOO-51" value="" style="rounded=0;whiteSpace=wrap;html=1;fillColor=#d5e8d4;strokeColor=none;" parent="1" vertex="1">
          <mxGeometry x="110" y="320" width="390" height="20" as="geometry" />
        </mxCell>
        <mxCell id="HbvzMS01daK5KtU9_YOO-54" value="" style="ellipse;whiteSpace=wrap;html=1;aspect=fixed;" parent="1" vertex="1">
          <mxGeometry x="160" y="320" width="20" height="20" as="geometry" />
        </mxCell>
        <mxCell id="HbvzMS01daK5KtU9_YOO-56" value="" style="ellipse;whiteSpace=wrap;html=1;aspect=fixed;fillColor=#f5f5f5;fontColor=#333333;strokeColor=#666666;" parent="1" vertex="1">
          <mxGeometry x="220" y="320" width="20" height="20" as="geometry" />
        </mxCell>
        <mxCell id="HbvzMS01daK5KtU9_YOO-58" value="" style="ellipse;whiteSpace=wrap;html=1;aspect=fixed;fillColor=#f8cecc;strokeColor=#b85450;" parent="1" vertex="1">
          <mxGeometry x="280" y="320" width="20" height="20" as="geometry" />
        </mxCell>
        <mxCell id="HbvzMS01daK5KtU9_YOO-64" style="rounded=0;orthogonalLoop=1;jettySize=auto;html=1;dashed=1;" parent="1" source="HbvzMS01daK5KtU9_YOO-60" target="HbvzMS01daK5KtU9_YOO-63" edge="1">
          <mxGeometry relative="1" as="geometry" />
        </mxCell>
        <mxCell id="HbvzMS01daK5KtU9_YOO-60" value="" style="ellipse;whiteSpace=wrap;html=1;aspect=fixed;" parent="1" vertex="1">
          <mxGeometry x="340" y="320" width="20" height="20" as="geometry" />
        </mxCell>
        <mxCell id="HbvzMS01daK5KtU9_YOO-63" value="" style="ellipse;whiteSpace=wrap;html=1;aspect=fixed;" parent="1" vertex="1">
          <mxGeometry x="310" y="400" width="20" height="20" as="geometry" />
        </mxCell>
        <mxCell id="HbvzMS01daK5KtU9_YOO-65" value="チェリーピック" style="text;html=1;align=center;verticalAlign=middle;whiteSpace=wrap;rounded=0;" parent="1" vertex="1">
          <mxGeometry x="340" y="355" width="100" height="30" as="geometry" />
        </mxCell>
        <mxCell id="HbvzMS01daK5KtU9_YOO-66" value="" style="ellipse;whiteSpace=wrap;html=1;aspect=fixed;fillColor=#f8cecc;strokeColor=#b85450;" parent="1" vertex="1">
          <mxGeometry x="280" y="265" width="20" height="20" as="geometry" />
        </mxCell>
        <mxCell id="HbvzMS01daK5KtU9_YOO-67" value="リリースに含めたくない修正" style="text;html=1;align=center;verticalAlign=middle;whiteSpace=wrap;rounded=0;fontFamily=Helvetica;fontSize=12;fontColor=default;" parent="1" vertex="1">
          <mxGeometry x="300" y="260" width="170" height="30" as="geometry" />
        </mxCell>
        <mxCell id="HbvzMS01daK5KtU9_YOO-68" value="" style="shape=flexArrow;endArrow=classic;html=1;rounded=0;fillColor=#f5f5f5;strokeColor=#666666;" parent="1" edge="1">
          <mxGeometry width="50" height="50" relative="1" as="geometry">
            <mxPoint x="370" y="160" as="sourcePoint" />
            <mxPoint x="370" y="120" as="targetPoint" />
          </mxGeometry>
        </mxCell>
        <mxCell id="HbvzMS01daK5KtU9_YOO-69" value="1回目のビルド" style="text;html=1;align=center;verticalAlign=middle;whiteSpace=wrap;rounded=0;fontFamily=Helvetica;fontSize=12;fontColor=default;" parent="1" vertex="1">
          <mxGeometry x="320" y="160" width="100" height="30" as="geometry" />
        </mxCell>
        <mxCell id="HbvzMS01daK5KtU9_YOO-82" value="" style="shape=flexArrow;endArrow=classic;html=1;rounded=0;fillColor=#f5f5f5;strokeColor=#666666;" parent="1" edge="1">
          <mxGeometry width="50" height="50" relative="1" as="geometry">
            <mxPoint x="320" y="460" as="sourcePoint" />
            <mxPoint x="320" y="420" as="targetPoint" />
          </mxGeometry>
        </mxCell>
        <mxCell id="HbvzMS01daK5KtU9_YOO-83" value="1回目のビルド" style="text;html=1;align=center;verticalAlign=middle;whiteSpace=wrap;rounded=0;fontFamily=Helvetica;fontSize=12;fontColor=default;" parent="1" vertex="1">
          <mxGeometry x="270" y="460" width="100" height="30" as="geometry" />
        </mxCell>
        <mxCell id="HbvzMS01daK5KtU9_YOO-84" value="" style="shape=flexArrow;endArrow=classic;html=1;rounded=0;fillColor=#f5f5f5;strokeColor=#666666;" parent="1" edge="1">
          <mxGeometry width="50" height="50" relative="1" as="geometry">
            <mxPoint x="180" y="790" as="sourcePoint" />
            <mxPoint x="180" y="750" as="targetPoint" />
          </mxGeometry>
        </mxCell>
        <mxCell id="HbvzMS01daK5KtU9_YOO-85" value="1回目のビルド" style="text;html=1;align=center;verticalAlign=middle;whiteSpace=wrap;rounded=0;fontFamily=Helvetica;fontSize=12;fontColor=default;" parent="1" vertex="1">
          <mxGeometry x="130" y="790" width="100" height="30" as="geometry" />
        </mxCell>
        <mxCell id="HbvzMS01daK5KtU9_YOO-86" value="" style="shape=flexArrow;endArrow=classic;html=1;rounded=0;fillColor=#f5f5f5;strokeColor=#666666;" parent="1" edge="1">
          <mxGeometry width="50" height="50" relative="1" as="geometry">
            <mxPoint x="380" y="790" as="sourcePoint" />
            <mxPoint x="380" y="750" as="targetPoint" />
          </mxGeometry>
        </mxCell>
        <mxCell id="HbvzMS01daK5KtU9_YOO-87" value="2回目のビルド" style="text;html=1;align=center;verticalAlign=middle;whiteSpace=wrap;rounded=0;fontFamily=Helvetica;fontSize=12;fontColor=default;" parent="1" vertex="1">
          <mxGeometry x="330" y="790" width="100" height="30" as="geometry" />
        </mxCell>
        <mxCell id="HbvzMS01daK5KtU9_YOO-89" value="ブランチ分岐" style="text;html=1;align=center;verticalAlign=middle;whiteSpace=wrap;rounded=0;fontFamily=Helvetica;fontSize=12;fontColor=default;" parent="1" vertex="1">
          <mxGeometry x="370" y="55" width="90" height="30" as="geometry" />
        </mxCell>
        <mxCell id="HbvzMS01daK5KtU9_YOO-91" value="" style="rounded=0;whiteSpace=wrap;html=1;fillColor=#d5e8d4;strokeColor=none;" parent="1" vertex="1">
          <mxGeometry x="110" y="960" width="390" height="20" as="geometry" />
        </mxCell>
        <mxCell id="HbvzMS01daK5KtU9_YOO-94" value="" style="ellipse;whiteSpace=wrap;html=1;aspect=fixed;fillColor=#f5f5f5;fontColor=#333333;strokeColor=#666666;" parent="1" vertex="1">
          <mxGeometry x="160" y="959.75" width="20" height="20" as="geometry" />
        </mxCell>
        <mxCell id="YSzRyxxZKu7olnSzr28_-3" style="rounded=0;orthogonalLoop=1;jettySize=auto;html=1;entryX=0.531;entryY=0.869;entryDx=0;entryDy=0;endArrow=none;endFill=0;exitX=1;exitY=0.5;exitDx=0;exitDy=0;entryPerimeter=0;" edge="1" parent="1" source="HbvzMS01daK5KtU9_YOO-96" target="lpfqvlLdq34NH5uHOWzO-2">
          <mxGeometry relative="1" as="geometry" />
        </mxCell>
        <mxCell id="HbvzMS01daK5KtU9_YOO-96" value="&lt;b&gt;&lt;font style=&quot;font-size: 10px;&quot;&gt;v1.0 リリースブランチ&lt;/font&gt;&lt;/b&gt;" style="text;html=1;strokeColor=none;fillColor=none;align=center;verticalAlign=middle;whiteSpace=wrap;rounded=0;" parent="1" vertex="1">
          <mxGeometry x="40" y="1040" width="120" height="20" as="geometry" />
        </mxCell>
        <mxCell id="HbvzMS01daK5KtU9_YOO-102" value="" style="ellipse;whiteSpace=wrap;html=1;aspect=fixed;" parent="1" vertex="1">
          <mxGeometry x="340" y="960" width="20" height="20" as="geometry" />
        </mxCell>
        <mxCell id="HbvzMS01daK5KtU9_YOO-103" style="rounded=0;orthogonalLoop=1;jettySize=auto;html=1;dashed=1;" parent="1" source="HbvzMS01daK5KtU9_YOO-104" target="HbvzMS01daK5KtU9_YOO-109" edge="1">
          <mxGeometry relative="1" as="geometry" />
        </mxCell>
        <mxCell id="HbvzMS01daK5KtU9_YOO-104" value="" style="ellipse;whiteSpace=wrap;html=1;aspect=fixed;fillColor=#dae8fc;strokeColor=#6c8ebf;" parent="1" vertex="1">
          <mxGeometry x="400" y="960" width="20" height="20" as="geometry" />
        </mxCell>
        <mxCell id="HbvzMS01daK5KtU9_YOO-105" value="" style="ellipse;whiteSpace=wrap;html=1;aspect=fixed;" parent="1" vertex="1">
          <mxGeometry x="460" y="959.75" width="20" height="20" as="geometry" />
        </mxCell>
        <mxCell id="HbvzMS01daK5KtU9_YOO-108" value="" style="ellipse;whiteSpace=wrap;html=1;aspect=fixed;" parent="1" vertex="1">
          <mxGeometry x="280" y="1040" width="20" height="20" as="geometry" />
        </mxCell>
        <mxCell id="HbvzMS01daK5KtU9_YOO-109" value="" style="ellipse;whiteSpace=wrap;html=1;aspect=fixed;fillColor=#dae8fc;strokeColor=#6c8ebf;" parent="1" vertex="1">
          <mxGeometry x="370" y="1040" width="20" height="20" as="geometry" />
        </mxCell>
        <mxCell id="HbvzMS01daK5KtU9_YOO-110" value="" style="ellipse;whiteSpace=wrap;html=1;aspect=fixed;fillColor=#dae8fc;strokeColor=#6c8ebf;" parent="1" vertex="1">
          <mxGeometry x="320" y="905" width="20" height="20" as="geometry" />
        </mxCell>
        <mxCell id="HbvzMS01daK5KtU9_YOO-111" value="hotfixとして含めたい修正" style="text;html=1;align=center;verticalAlign=middle;whiteSpace=wrap;rounded=0;" parent="1" vertex="1">
          <mxGeometry x="340" y="900" width="160" height="30" as="geometry" />
        </mxCell>
        <mxCell id="HbvzMS01daK5KtU9_YOO-115" value="" style="shape=flexArrow;endArrow=classic;html=1;rounded=0;fillColor=#f5f5f5;strokeColor=#666666;" parent="1" edge="1">
          <mxGeometry width="50" height="50" relative="1" as="geometry">
            <mxPoint x="290" y="1100" as="sourcePoint" />
            <mxPoint x="290" y="1060" as="targetPoint" />
          </mxGeometry>
        </mxCell>
        <mxCell id="HbvzMS01daK5KtU9_YOO-116" value="v1.0のビルド" style="text;html=1;align=center;verticalAlign=middle;whiteSpace=wrap;rounded=0;fontFamily=Helvetica;fontSize=12;fontColor=default;" parent="1" vertex="1">
          <mxGeometry x="245" y="1100" width="90" height="30" as="geometry" />
        </mxCell>
        <mxCell id="HbvzMS01daK5KtU9_YOO-117" value="" style="shape=flexArrow;endArrow=classic;html=1;rounded=0;fillColor=#f5f5f5;strokeColor=#666666;" parent="1" edge="1">
          <mxGeometry width="50" height="50" relative="1" as="geometry">
            <mxPoint x="380" y="1100" as="sourcePoint" />
            <mxPoint x="380" y="1060" as="targetPoint" />
          </mxGeometry>
        </mxCell>
        <mxCell id="HbvzMS01daK5KtU9_YOO-118" value="hotfixのビルド" style="text;html=1;align=center;verticalAlign=middle;whiteSpace=wrap;rounded=0;fontFamily=Helvetica;fontSize=12;fontColor=default;" parent="1" vertex="1">
          <mxGeometry x="331" y="1100" width="100" height="30" as="geometry" />
        </mxCell>
        <mxCell id="HbvzMS01daK5KtU9_YOO-120" value="" style="endArrow=none;html=1;rounded=0;dashed=1;endFill=0;" parent="1" edge="1">
          <mxGeometry width="50" height="50" relative="1" as="geometry">
            <mxPoint x="220" y="969.8" as="sourcePoint" />
            <mxPoint x="300" y="969.8" as="targetPoint" />
          </mxGeometry>
        </mxCell>
        <mxCell id="HbvzMS01daK5KtU9_YOO-123" value="" style="endArrow=none;html=1;rounded=0;dashed=1;endFill=0;" parent="1" edge="1">
          <mxGeometry width="50" height="50" relative="1" as="geometry">
            <mxPoint x="210" y="1049.8" as="sourcePoint" />
            <mxPoint x="250" y="1049.8" as="targetPoint" />
          </mxGeometry>
        </mxCell>
        <mxCell id="qTluzcmFmL69i6N4RuAm-5" value="" style="ellipse;whiteSpace=wrap;html=1;aspect=fixed;fillColor=#f5f5f5;fontColor=#333333;strokeColor=#666666;" parent="1" vertex="1">
          <mxGeometry x="160" y="1240" width="20" height="20" as="geometry" />
        </mxCell>
        <mxCell id="qTluzcmFmL69i6N4RuAm-10" style="rounded=0;orthogonalLoop=1;jettySize=auto;html=1;entryX=0.5;entryY=0;entryDx=0;entryDy=0;dashed=1;" parent="1" source="qTluzcmFmL69i6N4RuAm-11" target="qTluzcmFmL69i6N4RuAm-19" edge="1">
          <mxGeometry relative="1" as="geometry" />
        </mxCell>
        <mxCell id="qTluzcmFmL69i6N4RuAm-11" value="" style="ellipse;whiteSpace=wrap;html=1;aspect=fixed;" parent="1" vertex="1">
          <mxGeometry x="280" y="1240.25" width="20" height="20" as="geometry" />
        </mxCell>
        <mxCell id="qTluzcmFmL69i6N4RuAm-13" value="" style="ellipse;whiteSpace=wrap;html=1;aspect=fixed;" parent="1" vertex="1">
          <mxGeometry x="340" y="1240.25" width="20" height="20" as="geometry" />
        </mxCell>
        <mxCell id="qTluzcmFmL69i6N4RuAm-14" style="rounded=0;orthogonalLoop=1;jettySize=auto;html=1;dashed=1;" parent="1" source="qTluzcmFmL69i6N4RuAm-15" target="qTluzcmFmL69i6N4RuAm-20" edge="1">
          <mxGeometry relative="1" as="geometry" />
        </mxCell>
        <mxCell id="qTluzcmFmL69i6N4RuAm-15" value="" style="ellipse;whiteSpace=wrap;html=1;aspect=fixed;" parent="1" vertex="1">
          <mxGeometry x="400" y="1240.25" width="20" height="20" as="geometry" />
        </mxCell>
        <mxCell id="qTluzcmFmL69i6N4RuAm-16" value="" style="ellipse;whiteSpace=wrap;html=1;aspect=fixed;" parent="1" vertex="1">
          <mxGeometry x="460" y="1240" width="20" height="20" as="geometry" />
        </mxCell>
        <mxCell id="qTluzcmFmL69i6N4RuAm-19" value="" style="ellipse;whiteSpace=wrap;html=1;aspect=fixed;" parent="1" vertex="1">
          <mxGeometry x="250" y="1320.25" width="20" height="20" as="geometry" />
        </mxCell>
        <mxCell id="qTluzcmFmL69i6N4RuAm-20" value="" style="ellipse;whiteSpace=wrap;html=1;aspect=fixed;" parent="1" vertex="1">
          <mxGeometry x="370" y="1320.25" width="20" height="20" as="geometry" />
        </mxCell>
        <mxCell id="qTluzcmFmL69i6N4RuAm-22" value="トランクブランチとリリースブランチの乖離" style="text;html=1;align=center;verticalAlign=middle;whiteSpace=wrap;rounded=0;" parent="1" vertex="1">
          <mxGeometry x="240" y="1179.25" width="260" height="30" as="geometry" />
        </mxCell>
        <mxCell id="qTluzcmFmL69i6N4RuAm-23" value="チェリーピック" style="text;html=1;align=center;verticalAlign=middle;whiteSpace=wrap;rounded=0;" parent="1" vertex="1">
          <mxGeometry x="270" y="1275.25" width="100" height="30" as="geometry" />
        </mxCell>
        <mxCell id="qTluzcmFmL69i6N4RuAm-25" value="" style="ellipse;whiteSpace=wrap;html=1;aspect=fixed;" parent="1" vertex="1">
          <mxGeometry x="220" y="1240.25" width="20" height="20" as="geometry" />
        </mxCell>
        <mxCell id="2vuED8A4F-XmMgElCVzB-2" value="" style="rounded=0;whiteSpace=wrap;html=1;fillColor=#f8cecc;strokeColor=none;" parent="1" vertex="1">
          <mxGeometry x="210" y="1180" width="30" height="29.25" as="geometry" />
        </mxCell>
        <mxCell id="lpfqvlLdq34NH5uHOWzO-10" value="" style="shape=parallelogram;perimeter=parallelogramPerimeter;whiteSpace=wrap;html=1;fixedSize=1;fillColor=#fff2cc;strokeColor=none;flipH=1;" parent="1" vertex="1">
          <mxGeometry x="340" y="40" width="40" height="80.25" as="geometry" />
        </mxCell>
        <mxCell id="lpfqvlLdq34NH5uHOWzO-20" value="" style="endArrow=none;html=1;rounded=0;dashed=1;endFill=0;" parent="1" edge="1">
          <mxGeometry width="50" height="50" relative="1" as="geometry">
            <mxPoint x="120" y="1250" as="sourcePoint" />
            <mxPoint x="150" y="1250" as="targetPoint" />
          </mxGeometry>
        </mxCell>
        <mxCell id="lpfqvlLdq34NH5uHOWzO-21" value="" style="endArrow=none;html=1;rounded=0;dashed=1;endFill=0;" parent="1" edge="1">
          <mxGeometry width="50" height="50" relative="1" as="geometry">
            <mxPoint x="120" y="969.54" as="sourcePoint" />
            <mxPoint x="150" y="969.54" as="targetPoint" />
          </mxGeometry>
        </mxCell>
        <mxCell id="lpfqvlLdq34NH5uHOWzO-22" value="" style="endArrow=none;html=1;rounded=0;dashed=1;endFill=0;" parent="1" edge="1">
          <mxGeometry width="50" height="50" relative="1" as="geometry">
            <mxPoint x="120" y="659.47" as="sourcePoint" />
            <mxPoint x="150" y="659.47" as="targetPoint" />
          </mxGeometry>
        </mxCell>
        <mxCell id="lpfqvlLdq34NH5uHOWzO-23" value="" style="endArrow=none;html=1;rounded=0;dashed=1;endFill=0;" parent="1" edge="1">
          <mxGeometry width="50" height="50" relative="1" as="geometry">
            <mxPoint x="120" y="329.72" as="sourcePoint" />
            <mxPoint x="150" y="329.72" as="targetPoint" />
          </mxGeometry>
        </mxCell>
        <mxCell id="lpfqvlLdq34NH5uHOWzO-24" value="" style="endArrow=none;html=1;rounded=0;dashed=1;endFill=0;" parent="1" edge="1">
          <mxGeometry width="50" height="50" relative="1" as="geometry">
            <mxPoint x="120" y="29.780000000000026" as="sourcePoint" />
            <mxPoint x="150" y="29.780000000000026" as="targetPoint" />
          </mxGeometry>
        </mxCell>
        <mxCell id="YSzRyxxZKu7olnSzr28_-5" style="rounded=0;orthogonalLoop=1;jettySize=auto;html=1;entryX=1;entryY=0.5;entryDx=0;entryDy=0;endArrow=none;endFill=0;" edge="1" parent="1" source="YSzRyxxZKu7olnSzr28_-4" target="YSzRyxxZKu7olnSzr28_-2">
          <mxGeometry relative="1" as="geometry" />
        </mxCell>
        <mxCell id="YSzRyxxZKu7olnSzr28_-4" value="&lt;font style=&quot;font-size: 10px;&quot;&gt;&lt;b&gt;hotfixリリース&lt;/b&gt;&lt;/font&gt;&lt;div&gt;&lt;font style=&quot;font-size: 10px;&quot;&gt;&lt;b&gt;ブランチ&lt;/b&gt;&lt;/font&gt;&lt;/div&gt;" style="text;html=1;strokeColor=none;fillColor=none;align=center;verticalAlign=middle;whiteSpace=wrap;rounded=0;" vertex="1" parent="1">
          <mxGeometry x="421" y="1030" width="79" height="40" as="geometry" />
        </mxCell>
        <mxCell id="YSzRyxxZKu7olnSzr28_-6" value="&lt;font style=&quot;font-size: 10px;&quot;&gt;&lt;b&gt;トランクブランチ&lt;/b&gt;&lt;/font&gt;" style="text;html=1;strokeColor=none;fillColor=none;align=center;verticalAlign=middle;whiteSpace=wrap;rounded=0;" vertex="1" parent="1">
          <mxGeometry x="9.5" y="319.38" width="91" height="21.25" as="geometry" />
        </mxCell>
        <mxCell id="YSzRyxxZKu7olnSzr28_-7" value="&lt;b&gt;&lt;font style=&quot;font-size: 10px;&quot;&gt;v1.0 リリースブランチ&lt;/font&gt;&lt;/b&gt;" style="text;html=1;strokeColor=none;fillColor=none;align=center;verticalAlign=middle;whiteSpace=wrap;rounded=0;" vertex="1" parent="1">
          <mxGeometry x="104" y="400" width="116" height="20" as="geometry" />
        </mxCell>
        <mxCell id="YSzRyxxZKu7olnSzr28_-8" value="&lt;font style=&quot;font-size: 10px;&quot;&gt;&lt;b&gt;トランクブランチ&lt;/b&gt;&lt;/font&gt;" style="text;html=1;strokeColor=none;fillColor=none;align=center;verticalAlign=middle;whiteSpace=wrap;rounded=0;" vertex="1" parent="1">
          <mxGeometry x="9.5" y="649.37" width="91" height="21.25" as="geometry" />
        </mxCell>
        <mxCell id="YSzRyxxZKu7olnSzr28_-9" value="&lt;b&gt;&lt;font style=&quot;font-size: 10px;&quot;&gt;v1.0 リリースブランチ&lt;/font&gt;&lt;/b&gt;" style="text;html=1;strokeColor=none;fillColor=none;align=center;verticalAlign=middle;whiteSpace=wrap;rounded=0;" vertex="1" parent="1">
          <mxGeometry x="44" y="730" width="116" height="20" as="geometry" />
        </mxCell>
        <mxCell id="YSzRyxxZKu7olnSzr28_-10" value="&lt;font style=&quot;font-size: 10px;&quot;&gt;&lt;b&gt;トランクブランチ&lt;/b&gt;&lt;/font&gt;" style="text;html=1;strokeColor=none;fillColor=none;align=center;verticalAlign=middle;whiteSpace=wrap;rounded=0;" vertex="1" parent="1">
          <mxGeometry x="9.5" y="959.38" width="91" height="21.25" as="geometry" />
        </mxCell>
        <mxCell id="YSzRyxxZKu7olnSzr28_-11" value="&lt;font style=&quot;font-size: 10px;&quot;&gt;&lt;b&gt;トランクブランチ&lt;/b&gt;&lt;/font&gt;" style="text;html=1;strokeColor=none;fillColor=none;align=center;verticalAlign=middle;whiteSpace=wrap;rounded=0;" vertex="1" parent="1">
          <mxGeometry x="9" y="1239.63" width="91" height="21.25" as="geometry" />
        </mxCell>
        <mxCell id="YSzRyxxZKu7olnSzr28_-12" value="&lt;b&gt;&lt;font style=&quot;font-size: 10px;&quot;&gt;v1.0 リリースブランチ&lt;/font&gt;&lt;/b&gt;" style="text;html=1;strokeColor=none;fillColor=none;align=center;verticalAlign=middle;whiteSpace=wrap;rounded=0;" vertex="1" parent="1">
          <mxGeometry x="40" y="1320.25" width="120" height="20" as="geometry" />
        </mxCell>
        <mxCell id="YSzRyxxZKu7olnSzr28_-15" value="" style="group" vertex="1" connectable="0" parent="1">
          <mxGeometry x="150.5" y="1519.75" width="160" height="80.25" as="geometry" />
        </mxCell>
        <mxCell id="YSzRyxxZKu7olnSzr28_-16" value="" style="rounded=0;whiteSpace=wrap;html=1;fillColor=#fff2cc;strokeColor=none;" vertex="1" parent="YSzRyxxZKu7olnSzr28_-15">
          <mxGeometry x="30" y="60.25" width="130" height="20" as="geometry" />
        </mxCell>
        <mxCell id="YSzRyxxZKu7olnSzr28_-17" value="" style="shape=parallelogram;perimeter=parallelogramPerimeter;whiteSpace=wrap;html=1;fixedSize=1;fillColor=#fff2cc;strokeColor=none;flipH=1;" vertex="1" parent="YSzRyxxZKu7olnSzr28_-15">
          <mxGeometry width="40" height="80.25" as="geometry" />
        </mxCell>
        <mxCell id="YSzRyxxZKu7olnSzr28_-18" value="" style="rounded=0;whiteSpace=wrap;html=1;fillColor=#d5e8d4;strokeColor=none;" vertex="1" parent="1">
          <mxGeometry x="100.5" y="1500" width="399.5" height="20" as="geometry" />
        </mxCell>
        <mxCell id="YSzRyxxZKu7olnSzr28_-19" value="" style="ellipse;whiteSpace=wrap;html=1;aspect=fixed;fillColor=#f5f5f5;fontColor=#333333;strokeColor=#666666;" vertex="1" parent="1">
          <mxGeometry x="150.5" y="1499.75" width="20" height="20" as="geometry" />
        </mxCell>
        <mxCell id="YSzRyxxZKu7olnSzr28_-20" style="rounded=0;orthogonalLoop=1;jettySize=auto;html=1;entryX=0.5;entryY=1;entryDx=0;entryDy=0;endArrow=none;endFill=0;exitX=0.5;exitY=0;exitDx=0;exitDy=0;" edge="1" parent="1" source="YSzRyxxZKu7olnSzr28_-21" target="YSzRyxxZKu7olnSzr28_-17">
          <mxGeometry relative="1" as="geometry" />
        </mxCell>
        <mxCell id="YSzRyxxZKu7olnSzr28_-21" value="&lt;b&gt;&lt;font style=&quot;font-size: 10px;&quot;&gt;v1.0 リリースブランチ&lt;/font&gt;&lt;/b&gt;" style="text;html=1;strokeColor=none;fillColor=none;align=center;verticalAlign=middle;whiteSpace=wrap;rounded=0;" vertex="1" parent="1">
          <mxGeometry x="100" y="1620" width="120" height="20" as="geometry" />
        </mxCell>
        <mxCell id="YSzRyxxZKu7olnSzr28_-22" value="" style="ellipse;whiteSpace=wrap;html=1;aspect=fixed;" vertex="1" parent="1">
          <mxGeometry x="350.5" y="1500" width="20" height="20" as="geometry" />
        </mxCell>
        <mxCell id="YSzRyxxZKu7olnSzr28_-24" value="" style="ellipse;whiteSpace=wrap;html=1;aspect=fixed;" vertex="1" parent="1">
          <mxGeometry x="410.5" y="1500" width="20" height="20" as="geometry" />
        </mxCell>
        <mxCell id="YSzRyxxZKu7olnSzr28_-26" value="" style="ellipse;whiteSpace=wrap;html=1;aspect=fixed;" vertex="1" parent="1">
          <mxGeometry x="270.5" y="1580" width="20" height="20" as="geometry" />
        </mxCell>
        <mxCell id="YSzRyxxZKu7olnSzr28_-34" value="" style="endArrow=none;html=1;rounded=0;dashed=1;endFill=0;" edge="1" parent="1">
          <mxGeometry width="50" height="50" relative="1" as="geometry">
            <mxPoint x="210.5" y="1509.8" as="sourcePoint" />
            <mxPoint x="310" y="1510" as="targetPoint" />
          </mxGeometry>
        </mxCell>
        <mxCell id="YSzRyxxZKu7olnSzr28_-35" value="" style="endArrow=none;html=1;rounded=0;dashed=1;endFill=0;" edge="1" parent="1">
          <mxGeometry width="50" height="50" relative="1" as="geometry">
            <mxPoint x="200.5" y="1589.8" as="sourcePoint" />
            <mxPoint x="240.5" y="1589.8" as="targetPoint" />
          </mxGeometry>
        </mxCell>
        <mxCell id="YSzRyxxZKu7olnSzr28_-36" value="" style="endArrow=none;html=1;rounded=0;dashed=1;endFill=0;" edge="1" parent="1">
          <mxGeometry width="50" height="50" relative="1" as="geometry">
            <mxPoint x="110.5" y="1509.54" as="sourcePoint" />
            <mxPoint x="140.5" y="1509.54" as="targetPoint" />
          </mxGeometry>
        </mxCell>
        <mxCell id="YSzRyxxZKu7olnSzr28_-39" value="&lt;font style=&quot;font-size: 10px;&quot;&gt;&lt;b&gt;トランクブランチ&lt;/b&gt;&lt;/font&gt;" style="text;html=1;strokeColor=none;fillColor=none;align=center;verticalAlign=middle;whiteSpace=wrap;rounded=0;" vertex="1" parent="1">
          <mxGeometry y="1499.38" width="91" height="21.25" as="geometry" />
        </mxCell>
        <mxCell id="YSzRyxxZKu7olnSzr28_-49" style="rounded=0;orthogonalLoop=1;jettySize=auto;html=1;entryX=0.5;entryY=1;entryDx=0;entryDy=0;endArrow=none;endFill=0;" edge="1" parent="1" source="YSzRyxxZKu7olnSzr28_-46" target="YSzRyxxZKu7olnSzr28_-45">
          <mxGeometry relative="1" as="geometry" />
        </mxCell>
        <mxCell id="YSzRyxxZKu7olnSzr28_-46" value="&lt;b&gt;&lt;font style=&quot;font-size: 10px;&quot;&gt;v1.1 リリースブランチ&lt;/font&gt;&lt;/b&gt;" style="text;html=1;strokeColor=none;fillColor=none;align=center;verticalAlign=middle;whiteSpace=wrap;rounded=0;" vertex="1" parent="1">
          <mxGeometry x="350.5" y="1620" width="120" height="20" as="geometry" />
        </mxCell>
      </root>
    </mxGraphModel>
  </diagram>
</mxfile>
